<svg width="41" height="40" viewBox="0 0 41 40" fill="none" xmlns="http://www.w3.org/2000/svg">
<rect x="0.861328" width="40" height="40" rx="20" fill="#555555"/>
<path d="M26.8613 13.2857C26.2363 13.1429 23.1113 13 20.4863 13C17.9863 13 14.8613 13.1429 14.1113 13.2857C12.9863 13.4286 12.3613 14 12.1113 15.5714C11.9863 16.1429 11.8613 18.8571 11.8613 19.8571V20.1429C11.8613 21.1429 11.9863 24 12.1113 24.4286C12.4863 26 13.1113 26.5714 14.2363 26.7143C14.8613 26.8571 18.1113 27 20.6113 27C23.1113 27 26.2363 26.8571 26.9863 26.7143C28.1113 26.5714 28.7363 25.8571 29.1113 24.4286C29.2363 23.8571 29.3613 21.1429 29.3613 20.1429V19.8571C29.3613 18.8571 29.2363 16 29.1113 15.5714C28.6113 14 27.9863 13.4286 26.8613 13.2857Z" fill="white"/>
<path d="M17.9863 17.375L23.2363 20L17.9863 22.625V17.375Z" fill="#555555"/>
</svg>
